<!-- icon666.com - MILLIONS vector ICONS FREE -->
<svg fill="none" viewBox="0 0 32 32" xmlns="http://www.w3.org/2000/svg">
    <path clip-rule="evenodd" d="m16 28c6.6274 0 12-5.3726 12-12 0-6.62742-5.3726-12-12-12-6.62742 0-12 5.37258-12 12 0 6.6274 5.37258 12 12 12zm-6.99999-16.4c-.22092 0-.4.1791-.4.4s.17908.4.4.4h3.99999c.2209 0 .4-.1791.4-.4s-.1791-.4-.4-.4zm9.99999 0c-.2209 0-.4.1791-.4.4s.1791.4.4.4h4c.2209 0 .4-.1791.4-.4s-.1791-.4-.4-.4zm-8.2905 9.5095c.1518.1605.405.1675.5654.0156 1.9072-1.8045 4.6966-2.5699 7.3928-1.7694.2118.0629.4345-.0578.4974-.2696.0628-.2118-.0579-.4344-.2697-.4973-2.9811-.8851-6.0643-.0375-8.1703 1.9552-.1605.1519-.1675.405-.0156.5655z" fill="yellow" fill-rule="evenodd"></path>
</svg>